<?xml version="1.0" encoding="utf-8"?>
<!-- Generator: Adobe Illustrator 16.0.1, SVG Export Plug-In . SVG Version: 6.00 Build 0)  -->
<!DOCTYPE svg PUBLIC "-//W3C//DTD SVG 1.1//EN" "http://www.w3.org/Graphics/SVG/1.1/DTD/svg11.dtd">
<svg version="1.1" id="GFX" xmlns="http://www.w3.org/2000/svg" xmlns:xlink="http://www.w3.org/1999/xlink" x="0px" y="0px"
	 width="854.417px" height="1575.662px" viewBox="0 0 854.417 1575.662" enable-background="new 0 0 854.417 1575.662"
	 xml:space="preserve">
<symbol  id="Deleted_Symbol" viewBox="-5.5 -8.5 11 17">
	<path d="M-3.5,6.5h-1v-11h1v1h1v1h1v-1h1v-2h1v-2h2v2h-1v2h-1v2h3v1h-1v1h-1v1h-1v1h-1v1h-1v1h-1v1h-1V6.5z"/>
	<g>
		<polygon fill="#FFFFFF" points="5.5,-2.5 5.5,-1.5 4.5,-1.5 4.5,-0.5 3.5,-0.5 3.5,-1.5 0.5,-1.5 0.5,-3.5 1.5,-3.5 1.5,-2.5 		
			"/>
		<polygon fill="#FFFFFF" points="1.5,1.5 1.5,2.5 0.5,2.5 0.5,1.5 		"/>
		<polygon fill="#FFFFFF" points="0.5,2.5 0.5,3.5 -0.5,3.5 -0.5,2.5 		"/>
		<polygon fill="#FFFFFF" points="-1.5,4.5 -1.5,5.5 -2.5,5.5 -2.5,4.5 		"/>
		<polygon fill="#FFFFFF" points="-2.5,5.5 -2.5,6.5 -3.5,6.5 -3.5,5.5 		"/>
		<polygon fill="#FFFFFF" points="-4.5,6.5 -3.5,6.5 -3.5,7.5 -4.5,7.5 -4.5,8.5 -5.5,8.5 -5.5,-6.5 -4.5,-6.5 -4.5,-5.5 -3.5,-5.5 
			-3.5,-4.5 -4.5,-4.5 		"/>
		<polygon fill="#FFFFFF" points="-0.5,3.5 -0.5,4.5 -1.5,4.5 -1.5,3.5 		"/>
		<polygon fill="#FFFFFF" points="-1.5,-3.5 -1.5,-5.5 -0.5,-5.5 -0.5,-3.5 		"/>
		<polygon fill="#FFFFFF" points="-2.5,-2.5 -2.5,-3.5 -1.5,-3.5 -1.5,-2.5 		"/>
		<polygon fill="#FFFFFF" points="-3.5,-4.5 -2.5,-4.5 -2.5,-3.5 -3.5,-3.5 		"/>
		<polygon fill="#FFFFFF" points="3.5,-0.5 3.5,0.5 2.5,0.5 2.5,-0.5 		"/>
		<polygon fill="#FFFFFF" points="2.5,0.5 2.5,1.5 1.5,1.5 1.5,0.5 		"/>
		<polygon fill="#FFFFFF" points="2.5,-5.5 2.5,-3.5 1.5,-3.5 1.5,-5.5 		"/>
		<polygon fill="#FFFFFF" points="0.5,-7.5 0.5,-8.5 3.5,-8.5 3.5,-5.5 2.5,-5.5 2.5,-7.5 		"/>
		<polygon fill="#FFFFFF" points="-0.5,-5.5 -0.5,-7.5 0.5,-7.5 0.5,-5.5 		"/>
	</g>
</symbol>
<pattern  x="80.633" y="51.837" width="8.485" height="8.484" patternUnits="userSpaceOnUse" id="cross_hatching" viewBox="9.547 -18.03 8.485 8.484" overflow="visible">
	<g>
		<polygon fill="none" points="9.547,-18.03 18.032,-18.03 18.032,-9.545 9.547,-9.545 		"/>
		<line fill="none" stroke="#000000" stroke-width="3" x1="18.03" y1="-1.061" x2="26.517" y2="-9.545"/>
		<line fill="none" stroke="#000000" stroke-width="3" x1="9.546" y1="-1.061" x2="18.032" y2="-9.545"/>
		<line fill="none" stroke="#000000" stroke-width="3" x1="1.061" y1="-1.061" x2="9.547" y2="-9.545"/>
		<line fill="none" stroke="#000000" stroke-width="3" x1="18.03" y1="-9.545" x2="26.517" y2="-18.03"/>
		<line fill="none" stroke="#000000" stroke-width="3" x1="9.546" y1="-9.545" x2="18.032" y2="-18.03"/>
		<line fill="none" stroke="#000000" stroke-width="3" x1="1.061" y1="-9.545" x2="9.547" y2="-18.03"/>
		<line fill="none" stroke="#000000" stroke-width="3" x1="18.03" y1="-18.029" x2="26.517" y2="-26.514"/>
		<line fill="none" stroke="#000000" stroke-width="3" x1="9.546" y1="-18.029" x2="18.032" y2="-26.514"/>
		<line fill="none" stroke="#000000" stroke-width="3" x1="1.061" y1="-18.029" x2="9.547" y2="-26.514"/>
	</g>
</pattern>
<pattern  x="80.633" y="51.837" width="8.485" height="8.484" patternUnits="userSpaceOnUse" id="cross_hatching_2" viewBox="9.546 -18.03 8.485 8.484" overflow="visible">
	<g>
		<polygon fill="none" points="9.546,-18.03 18.031,-18.03 18.031,-9.545 9.546,-9.545 		"/>
		<line fill="none" stroke="#0079AE" stroke-width="3" x1="18.03" y1="-1.061" x2="26.517" y2="-9.545"/>
		<line fill="none" stroke="#0079AE" stroke-width="3" x1="9.545" y1="-1.061" x2="18.032" y2="-9.545"/>
		<line fill="none" stroke="#0079AE" stroke-width="3" x1="1.061" y1="-1.061" x2="9.547" y2="-9.545"/>
		<line fill="none" stroke="#0079AE" stroke-width="3" x1="18.03" y1="-9.545" x2="26.517" y2="-18.03"/>
		<line fill="none" stroke="#0079AE" stroke-width="3" x1="9.545" y1="-9.545" x2="18.032" y2="-18.03"/>
		<line fill="none" stroke="#0079AE" stroke-width="3" x1="1.061" y1="-9.545" x2="9.547" y2="-18.03"/>
		<line fill="none" stroke="#0079AE" stroke-width="3" x1="18.03" y1="-18.029" x2="26.517" y2="-26.514"/>
		<line fill="none" stroke="#0079AE" stroke-width="3" x1="9.545" y1="-18.029" x2="18.032" y2="-26.514"/>
		<line fill="none" stroke="#0079AE" stroke-width="3" x1="1.061" y1="-18.029" x2="9.547" y2="-26.514"/>
	</g>
</pattern>
<g id="GFX__x2014__6_column_grid">
	<g id="GFX__x2014__6_column_grid_2_">
		<g>
			<g>
				<rect x="80.634" y="51.837" fill="none" width="237.567" height="3.199"/>
				<line fill="none" stroke="#000000" stroke-width="0.5" x1="80.634" y1="55.287" x2="318.201" y2="55.287"/>
			</g>
			<rect x="80.634" y="61.937" fill="none" width="237.567" height="35.859"/>
			<text transform="matrix(1 0 0 1 80.6333 71.0508)"><tspan x="0" y="0" font-family="'DJ5RetinaNr-Bold'" font-size="12.6">Leading the Way</tspan><tspan x="0" y="12" font-family="'DJ5RetinaNr-Medium'" font-size="8.4">A rise in Treasury yields lifted shares of banks on Wednesday.</tspan></text>
			<rect x="80.634" y="267.937" fill="none" width="237.582" height="5.623"/>
			<text transform="matrix(1 0 0 1 80.6367 272.6333)"><tspan x="0" y="0" font-family="'DJ5RetinaAgReg-Light'" font-size="6">Source: WSJ Market Data Group</tspan><tspan x="80.549" y="0" font-family="'DJ5RetinaAgReg-Light'" font-size="6" letter-spacing="68">	</tspan><tspan x="150.12" y="0" font-family="'DJ5EscrowCond-Semibold'" font-size="6.6">THE WALL STREET JOURNAL.</tspan></text>
		</g>
		<g id="WSJChart_x5F_477076447103">
			<g id="WSJ_x5F_Charter_x5F_Data_x5F_Object_8_">
				<rect id="WSJ_x5F_Charter_x5F_Empty_x5F_Point_8_" x="80.646" y="81.125" fill="none" width="0" height="0"/>
			</g>
			<rect id="WSJ_x5F_Charter_x5F_Origin_x5F_Point_8_" x="80.646" y="81.125" fill="none" width="0" height="0"/>
			<g id="Chart_Items">
				<g id="Fever_fills">
				</g>
				<g id="Vertical_Labels">
					<text transform="matrix(1 0 0 1 81.3521 101.7124)" font-family="'DJ5RetinaNr-Light'" font-size="7.5">4</text>
					<text transform="matrix(1 0 0 1 81.0371 240.8115)" font-family="'DJ5RetinaNr-Light'" font-size="7.5">0</text>
					<text transform="matrix(1 0 0 1 82.3872 206.0366)" font-family="'DJ5RetinaNr-Light'" font-size="7.5">1</text>
					<text transform="matrix(1 0 0 1 81.5244 171.2622)" font-family="'DJ5RetinaNr-Light'" font-size="7.5">2</text>
					<text transform="matrix(1 0 0 1 81.6147 136.4873)" font-family="'DJ5RetinaNr-Light'" font-size="7.5">3</text>
				</g>
				<text transform="matrix(1 0 0 1 85.4595 101.7124)" font-family="'DJ5RetinaNr-Light'" font-size="7.5">%</text>
				<g id="Vertical_scale">
					
						<line fill="none" stroke="#BFBFBF" stroke-width="0.5" stroke-miterlimit="10" x1="80.646" y1="103.975" x2="318.214" y2="103.975"/>
					
						<line id="line" fill="none" stroke="#BFBFBF" stroke-width="0.5" stroke-miterlimit="10" x1="80.646" y1="208.299" x2="318.214" y2="208.299"/>
					
						<line id="line_15_" fill="none" stroke="#BFBFBF" stroke-width="0.5" stroke-miterlimit="10" x1="80.646" y1="173.524" x2="318.214" y2="173.524"/>
					
						<line id="line_18_" fill="none" stroke="#BFBFBF" stroke-width="0.5" stroke-miterlimit="10" x1="80.646" y1="138.75" x2="318.214" y2="138.75"/>
				</g>
				<g id="Ticks">
					<g id="Date_Ticks">
						
							<line fill="none" stroke="#000000" stroke-width="0.5" stroke-miterlimit="10" x1="87.267" y1="243.074" x2="87.267" y2="246.736"/>
						<path fill="none" stroke="#000000" stroke-width="0.5" stroke-miterlimit="10" d="M104.986,253.074"/>
						<path fill="none" stroke="#000000" stroke-width="0.5" stroke-miterlimit="10" d="M104.986,243.074"/>
						<path fill="none" stroke="#000000" stroke-width="0.5" stroke-miterlimit="10" d="M140.426,253.074"/>
						<path fill="none" stroke="#000000" stroke-width="0.5" stroke-miterlimit="10" d="M140.426,243.074"/>
						<path fill="none" stroke="#000000" stroke-width="0.5" stroke-miterlimit="10" d="M211.305,253.074"/>
						<path fill="none" stroke="#000000" stroke-width="0.5" stroke-miterlimit="10" d="M211.305,243.074"/>
						<path fill="none" stroke="#000000" stroke-width="0.5" stroke-miterlimit="10" d="M282.184,253.074"/>
						<path fill="none" stroke="#000000" stroke-width="0.5" stroke-miterlimit="10" d="M282.184,243.074"/>
					</g>
					<g id="Tick_labels">
						<g>
							<text transform="matrix(1 0 0 1 86.4824 255.0117)" font-family="'DJ5RetinaNr-Light'" font-size="7.5">9:30 </text>
						</g>
						<g>
							<text transform="matrix(1 0 0 1 168.8257 255.0117)" font-family="'DJ5RetinaNr-Light'" font-size="7.5">noon</text>
						</g>
						<g>
							<text transform="matrix(1 0 0 1 244.752 255.0117)" font-family="'DJ5RetinaNr-Light'" font-size="7.5">2</text>
						</g>
						<g>
							<text transform="matrix(1 0 0 1 315.4585 255.0117)" font-family="'DJ5RetinaNr-Light'" font-size="7.5">4</text>
						</g>
					</g>
				</g>
				<g id="Moved_baseline">
					
						<line id="Zero_baseline" fill="none" stroke="#000000" stroke-width="0.5" stroke-miterlimit="10" x1="80.646" y1="243.074" x2="318.214" y2="243.074"/>
				</g>
				<g id="FeverLines_x5F_fg">
					<polyline id="JPM" fill="none" stroke="#0099DC" stroke-width="1.5" stroke-linejoin="round" stroke-miterlimit="10" points="
						87.267,243.074 87.857,203.272 88.448,206.714 89.039,205.483 89.629,207.326 90.22,204.61 90.811,200.324 91.401,196.639 
						91.992,198.039 92.583,199.587 93.173,199.587 93.764,196.639 94.354,192.953 94.945,195.165 95.536,194.427 96.126,191.848 
						96.717,188.899 97.308,186.475 97.898,187.204 98.489,190.189 99.08,192.584 99.67,192.953 100.261,191.11 100.852,190.005 
						101.442,190.742 102.033,191.11 102.624,190.374 103.214,192.039 103.805,192.584 104.396,193.322 104.986,193.69 
						105.577,192.584 106.167,191.11 106.758,192.677 107.349,191.848 107.939,194.059 108.53,192.4 109.121,194.059 
						109.711,192.216 110.302,194.217 110.893,193.322 111.483,189.636 112.074,188.162 112.665,187.057 113.255,187.978 
						113.846,187.057 114.437,184.665 115.027,183.924 115.618,186.32 116.209,185.03 116.799,183.74 117.39,181.529 
						117.981,181.897 118.571,181.897 119.162,181.215 119.753,179.881 120.343,177.475 120.934,177.843 121.525,176 
						122.115,173.79 122.706,175.374 123.297,176 123.887,174.895 124.478,175.632 125.069,174.895 125.659,177.843 126.25,177.18 
						126.841,178.212 127.431,176 128.022,174.523 128.613,175.264 129.203,176.738 129.794,179.41 130.385,181.525 
						130.975,181.742 131.566,179.686 132.157,181.529 132.747,179.686 133.338,182.225 133.929,182.601 134.519,182.082 
						135.11,179.317 135.701,178.949 136.291,180.423 136.882,179.686 137.473,178.949 138.063,175.264 138.654,173.79 
						139.245,172.315 139.835,171.947 140.426,170.841 141.017,167.708 141.607,170.841 142.198,168.63 142.789,168.774 
						143.379,168.261 143.97,169.367 144.561,169.551 145.151,167.708 145.742,163.839 146.333,163.839 146.923,163.471 
						147.514,163.839 148.104,162.733 148.695,161.259 149.286,159.417 149.876,158.68 150.467,161.259 151.058,160.522 
						151.648,160.154 152.239,160.154 152.83,159.785 153.42,163.102 154.011,162.549 154.602,161.469 155.192,161.997 
						155.783,159.911 156.374,159.417 156.964,162.365 157.555,159.417 158.146,160.154 158.736,160.522 159.327,157.574 
						159.917,155.916 160.508,156.653 161.099,153.446 161.689,153.151 162.28,151.677 162.871,154.441 163.461,156.284 
						164.052,157.206 164.643,157.766 165.233,156.468 165.824,155.363 166.415,153.03 167.005,150.94 167.596,152.783 
						168.187,150.572 168.777,146.146 169.368,147.808 169.958,149.374 170.549,150.388 171.14,150.572 171.73,151.309 
						172.321,150.94 172.912,150.026 173.502,149.098 174.093,147.808 174.684,149.466 175.274,147.992 175.865,144.02 
						176.456,142.977 177.046,140.99 177.637,142.096 178.228,141.727 178.818,139.516 179.409,142.096 180,142.464 180.59,140.253 
						181.181,139.369 181.772,141.543 182.362,140.069 182.953,140.437 183.544,141.911 184.135,144.491 184.725,145.044 
						185.316,145.781 185.906,143.57 186.497,142.833 187.088,142.096 187.679,138.41 188.27,136.199 188.859,138.41 
						189.45,137.305 190.041,140.99 190.632,140.622 191.223,143.017 191.813,141.727 192.403,142.453 192.994,142.464 
						193.585,144.307 194.176,143.201 194.767,143.938 195.357,149.098 195.947,149.65 196.538,150.937 197.129,150.572 
						197.72,151.309 198.311,152.415 198.901,151.309 199.491,151.677 200.082,150.203 200.673,150.572 201.264,149.503 
						201.854,147.624 202.445,149.098 203.035,149.098 203.626,148.729 204.217,148.364 204.808,147.624 205.398,148.729 
						205.989,149.208 206.579,149.098 207.17,148.91 207.761,150.384 208.352,149.098 208.942,148.729 209.533,149.835 
						210.123,148.545 210.714,148.361 211.305,149.098 211.896,149.098 212.486,148.361 213.077,148.114 213.667,148.729 
						214.258,150.019 214.849,147.255 215.439,146.89 216.03,146.702 216.621,145.409 217.211,146.518 217.802,146.426 
						218.393,144.491 218.983,145.413 219.574,145.413 220.165,144.675 220.755,146.662 221.346,145.906 221.937,145.781 
						222.527,146.149 223.118,146.149 223.709,145.781 224.299,145.044 224.89,144.307 225.48,143.201 226.071,141.358 
						226.662,140.622 227.253,140.622 227.843,140.622 228.434,140.99 229.024,142.096 229.615,141.358 230.206,145.781 
						230.797,149.282 231.387,149.543 231.978,147.255 232.568,148.176 233.159,147.439 233.75,147.992 234.341,148.729 
						234.931,147.255 235.521,147.624 236.112,147.624 236.703,149.098 237.294,147.255 237.885,147.79 238.475,146.887 
						239.065,147.992 239.656,146.887 240.247,147.255 240.838,146.518 241.429,145.413 242.019,145.781 242.609,145.965 
						243.2,145.047 243.791,145.413 244.382,145.044 244.973,143.938 245.562,144.675 246.153,143.57 246.744,143.201 
						247.335,143.938 247.926,143.201 248.517,143.735 249.106,143.938 249.697,143.938 250.288,144.123 250.879,144.804 
						251.47,147.624 252.061,145.726 252.65,145.413 253.241,146.149 253.832,146.149 254.423,149.835 255.014,148.84 
						255.604,150.203 256.194,150.535 256.785,148.118 257.376,148.361 257.967,148.176 258.558,150.756 259.148,149.098 
						259.738,149.466 260.329,148.729 260.92,148.63 261.511,147.439 262.102,146.518 262.692,146.887 263.282,146.518 
						263.873,145.044 264.464,145.228 265.055,147.992 265.646,147.624 266.236,146.706 266.826,148.361 267.417,149.691 
						268.008,149.466 268.599,149.466 269.189,150.572 269.78,148.361 270.37,148.361 270.961,147.259 271.552,146.333 
						272.143,146.702 272.733,145.324 273.324,144.307 273.914,143.57 274.505,143.385 275.096,142.833 275.687,142.28 
						276.277,143.017 276.868,144.675 277.458,145.221 278.049,144.307 278.64,146.518 279.23,148.361 279.821,150.019 
						280.412,148.162 281.002,149.282 281.593,148.729 282.184,147.992 282.774,149.079 283.365,149.466 283.956,149.65 
						284.546,147.992 285.137,150.903 285.728,152.599 286.318,153.889 286.909,155.249 287.5,157.574 288.09,159.417 
						288.681,159.048 289.271,157.206 289.862,156.468 290.453,156.468 291.044,156.1 291.634,156.468 292.225,156.313 
						292.815,156.1 293.406,155.916 293.997,156.1 294.588,156.284 295.178,155.916 295.769,154.625 296.359,154.994 
						296.95,155.363 297.541,153.889 298.132,151.309 298.723,152.783 299.312,153.889 299.903,154.625 300.494,154.994 
						301.085,153.889 301.676,156.468 302.266,157.39 302.856,158.366 303.447,157.206 304.038,158.308 304.629,159.048 
						305.22,159.969 305.811,158.68 306.4,156.837 306.991,156.837 307.582,156.1 308.173,157.574 308.764,158.127 309.354,158.311 
						309.944,158.68 310.535,158.311 311.126,155.363 311.717,152.415 312.308,154.625 312.898,153.52 313.488,153.151 
						314.079,152.599 314.67,152.967 315.261,152.138 315.852,150.977 316.441,150.94 317.032,151.309 317.623,150.203 
						318.214,150.203 					"/>
					<g id="Data_points">
					</g>
					<polyline id="C" fill="none" stroke="#C7C8CA" stroke-width="1.5" stroke-linejoin="round" stroke-miterlimit="10" points="
						87.267,243.074 87.857,212.118 88.448,213.309 89.039,214.499 89.629,215.213 90.22,216.88 90.811,213.011 91.401,209.737 
						91.992,213.302 92.583,214.499 93.173,210.332 93.764,211.522 94.354,210.332 94.945,210.332 95.536,209.737 96.126,207.951 
						96.717,204.379 97.308,201.998 97.898,201.015 98.489,202.307 99.08,204.676 99.67,206.76 100.261,205.569 100.852,204.081 
						101.442,205.569 102.033,204.379 102.624,204.974 103.214,207.058 103.805,204.379 104.396,204.379 104.986,206.153 
						105.577,203.194 106.167,201.7 106.758,203.188 107.349,201.998 107.939,205.569 108.53,202.593 109.121,204.379 
						109.711,202.891 110.302,204.379 110.893,202.891 111.483,199.938 112.074,199.021 112.665,197.914 113.255,196.044 
						113.846,197.831 114.437,195.455 115.027,194.556 115.618,195.449 116.209,195.151 116.799,194.259 117.39,194.169 
						117.981,193.664 118.571,194.259 119.162,193.068 119.753,191.877 120.343,191.58 120.934,191.074 121.525,189.496 
						122.115,188.901 122.706,191.812 123.297,189.794 123.887,187.71 124.478,187.115 125.069,185.924 125.659,187.71 
						126.25,186.52 126.841,186.52 127.431,186.52 128.022,185.329 128.613,187.115 129.203,187.413 129.794,188.895 
						130.385,189.496 130.975,192.473 131.566,191.877 132.157,195.449 132.747,195.449 133.338,197.831 133.929,197.831 
						134.519,197.533 135.11,194.259 135.701,194.259 136.291,192.473 136.882,191.877 137.473,193.068 138.063,189.496 
						138.654,186.692 139.245,183.543 139.835,183.841 140.426,182.948 141.017,179.078 141.607,180.626 142.198,179.078 
						142.789,181.162 143.379,177.59 143.97,178.483 144.561,181.162 145.151,179.608 145.742,175.465 146.333,174.018 
						146.923,174.911 147.514,175.209 148.104,173.423 148.695,172.53 149.286,171.869 149.876,172.232 150.467,177.59 
						151.058,175.209 151.648,175.209 152.239,173.423 152.83,173.423 153.42,175.506 154.011,173.423 154.602,171.339 
						155.192,172.232 155.783,173.125 156.374,174.316 156.964,175.506 157.555,173.721 158.146,173.423 158.736,174.614 
						159.327,172.828 159.917,170.744 160.508,172.232 161.099,171.464 161.689,170.506 162.28,169.768 162.871,171.637 
						163.461,172.232 164.052,172.828 164.643,172.828 165.233,172.828 165.824,174.614 166.415,169.851 167.005,167.172 
						167.596,168.363 168.187,165.684 168.777,161.517 169.368,164.493 169.958,165.684 170.549,166.785 171.14,167.47 
						171.73,167.768 172.321,166.875 172.912,167.172 173.502,166.279 174.093,165.981 174.684,165.684 175.274,165.089 
						175.865,160.326 176.456,159.791 177.046,158.243 177.637,160.921 178.228,161.576 178.818,159.136 179.409,160.028 
						180,159.731 180.59,156.159 181.181,154.968 181.772,156.159 182.362,156.522 182.953,155.564 183.544,157.052 
						184.135,160.326 184.725,160.921 185.316,162.708 185.906,162.708 186.497,160.326 187.088,158.838 187.679,156.457 
						188.27,155.266 188.859,158.54 189.45,156.754 190.041,158.838 190.632,157.159 191.223,159.136 191.813,159.433 
						192.403,159.731 192.994,159.731 193.585,160.921 194.176,160.028 194.767,164.493 195.357,165.684 195.947,165.994 
						196.538,165.386 197.129,165.684 197.72,164.791 198.311,165.089 198.901,164.791 199.491,166.279 200.082,164.196 
						200.673,163.601 201.264,164.493 201.854,163.005 202.445,163.303 203.035,163.601 203.626,162.708 204.217,162.41 
						204.808,160.921 205.398,161.517 205.989,163.303 206.579,163.761 207.17,162.958 207.761,163.898 208.352,161.517 
						208.942,162.112 209.533,162.112 210.123,160.921 210.714,160.326 211.305,160.326 211.896,160.326 212.486,160.921 
						213.077,161.814 213.667,160.624 214.258,161.517 214.849,158.54 215.439,157.35 216.03,156.522 216.621,154.373 
						217.211,155.564 217.802,155.266 218.393,154.373 218.983,154.373 219.574,153.183 220.165,151.396 220.755,151.992 
						221.346,152.587 221.937,151.694 222.527,152.587 223.118,151.992 223.709,153.177 224.299,151.992 224.89,152.587 
						225.48,150.503 226.071,148.42 226.662,149.015 227.253,148.42 227.843,145.265 228.434,144.253 229.024,146.039 
						229.615,145.146 230.206,149.015 230.797,151.402 231.387,151.992 231.978,149.611 232.568,149.611 233.159,149.682 
						233.75,149.908 234.341,151.099 234.931,149.313 235.521,148.123 236.112,147.229 236.703,147.545 237.294,146.634 
						237.885,145.443 238.475,146.039 239.065,148.718 239.656,148.123 240.247,148.42 240.838,149.015 241.429,148.36 
						242.019,149.557 242.609,149.611 243.2,148.718 243.791,148.718 244.382,148.42 244.973,148.718 245.562,148.42 
						246.153,148.027 246.744,148.718 247.335,149.611 247.926,149.604 248.517,149.266 249.106,150.206 249.697,150.206 
						250.288,150.503 250.879,151.402 251.47,154.177 252.061,153.778 252.65,152.587 253.241,152.885 253.832,154.076 
						254.423,156.754 255.014,155.861 255.604,158.838 256.194,157.04 256.785,154.968 257.376,152.587 257.967,153.778 
						258.558,156.754 259.148,154.968 259.738,155.266 260.329,154.373 260.92,154.373 261.511,154.076 262.102,152.885 
						262.692,153.183 263.282,153.778 263.873,152.587 264.464,153.48 265.055,154.373 265.646,155.564 266.236,154.968 
						266.826,155.861 267.417,156.754 268.008,156.159 268.599,155.861 269.189,155.695 269.78,156.754 270.37,156.754 
						270.961,157.35 271.552,157.052 272.143,157.052 272.733,156.159 273.324,156.159 273.914,154.701 274.505,154.671 
						275.096,154.968 275.687,154.968 276.277,153.367 276.868,153.837 277.458,153.778 278.049,153.48 278.64,153.778 
						279.23,154.373 279.821,154.373 280.412,152.29 281.002,152.587 281.593,153.183 282.184,153.778 282.774,154.373 
						283.365,153.48 283.956,153.183 284.546,151.694 285.137,154.076 285.728,154.671 286.318,154.968 286.909,154.968 
						287.5,157.35 288.09,160.624 288.681,159.142 289.271,159.136 289.862,160.326 290.453,159.731 291.044,160.028 
						291.634,158.54 292.225,158.54 292.815,158.54 293.406,154.968 293.997,156.754 294.588,158.243 295.178,158.838 
						295.769,157.647 296.359,158.243 296.95,159.32 297.541,158.725 298.132,158.243 298.723,159.433 299.312,160.921 
						299.903,160.921 300.494,159.433 301.085,157.647 301.676,159.731 302.266,159.136 302.856,159.981 303.447,158.767 
						304.038,158.54 304.629,159.731 305.22,160.326 305.811,158.838 306.4,157.35 306.991,157.647 307.582,155.861 
						308.173,158.838 308.764,159.731 309.354,161.219 309.944,162.708 310.535,160.624 311.126,159.136 311.717,157.35 
						312.308,157.647 312.898,156.159 313.488,154.671 314.079,153.48 314.67,154.373 315.261,153.778 315.852,154.373 
						316.441,154.373 317.032,153.48 317.623,154.373 318.214,155.564 					"/>
					<g id="Data_points_1_">
					</g>
					<polyline id="BAC" fill="none" stroke="#0079AE" stroke-width="1.5" stroke-linejoin="round" stroke-miterlimit="10" points="
						87.267,243.074 87.857,202.144 88.448,203.495 89.039,201.448 89.629,206.907 90.22,204.86 90.811,201.448 91.401,194.187 
						91.992,193.205 92.583,197.354 93.173,198.036 93.764,195.306 94.354,194.515 94.945,194.651 95.536,194.829 96.126,191.894 
						96.717,187.909 97.308,185.234 97.898,182.573 98.489,187.104 99.08,188.482 99.67,189.165 100.261,189.847 100.852,186.435 
						101.442,186.285 102.033,188.482 102.624,187.8 103.214,189.847 103.805,191.212 104.396,190.529 104.986,191.894 
						105.577,190.529 106.167,187.8 106.758,190.529 107.349,190.529 107.939,190.529 108.53,187.8 109.121,189.847 
						109.711,187.541 110.302,191.212 110.893,191.198 111.483,187.8 112.074,186.872 112.665,188.482 113.255,185.752 
						113.846,186.435 114.437,181.658 115.027,182.341 115.618,183.023 116.209,183.787 116.799,180.293 117.39,177.564 
						117.981,177.564 118.571,178.246 119.162,178.929 119.753,176.486 120.343,175.558 120.934,172.787 121.525,172.787 
						122.115,170.058 122.706,172.105 123.297,172.105 123.887,168.01 124.478,170.74 125.069,169.375 125.659,171.422 
						126.25,170.74 126.841,170.74 127.431,173.47 128.022,172.105 128.613,172.105 129.203,172.105 129.794,174.152 
						130.385,174.834 130.975,178.929 131.566,174.834 132.157,178.246 132.747,176.199 133.338,178.929 133.929,176.663 
						134.519,176.881 135.11,173.47 135.701,173.47 136.291,172.337 136.882,171.422 137.473,170.74 138.063,168.843 
						138.654,166.646 139.245,163.916 139.835,164.093 140.426,165.281 141.017,160.504 141.607,161.2 142.198,160.504 
						142.789,162.551 143.379,159.139 143.97,160.504 144.561,163.233 145.151,159.822 145.742,157.092 146.333,156.601 
						146.923,155.045 147.514,157.774 148.104,157.501 148.695,155.727 149.286,154.362 149.876,153.68 150.467,157.079 
						151.058,153.68 151.648,152.315 152.239,150.268 152.83,151.497 153.42,152.998 154.011,151.633 154.602,151.114 
						155.192,151.633 155.783,148.903 156.374,148.903 156.964,150.923 157.555,147.743 158.146,149.586 158.736,150.951 
						159.327,148.903 159.917,147.539 160.508,148.221 161.099,145.805 161.689,145.491 162.28,144.126 162.871,143.444 
						163.461,144.809 164.052,146.856 164.643,146.856 165.233,146.174 165.824,146.174 166.415,144.291 167.005,141.397 
						167.596,142.762 168.187,140.715 168.777,137.985 169.368,142.08 169.958,141.397 170.549,140.728 171.14,142.762 
						171.73,145.491 172.321,144.809 172.912,146.174 173.502,143.444 174.093,144.809 174.684,146.856 175.274,146.037 
						175.865,140.933 176.456,141.397 177.046,139.35 177.637,142.08 178.228,140.715 178.818,139.35 179.409,141.397 180,143.444 
						180.59,140.032 181.181,139.35 181.772,141.056 182.362,138.558 182.953,138.736 183.544,140.715 184.135,140.769 
						184.725,143.444 185.316,143.444 185.906,142.08 186.497,140.032 187.088,139.923 187.679,137.985 188.27,134.573 
						188.859,135.255 189.45,135.829 190.041,137.166 190.632,136.62 191.223,139.35 191.813,139.35 192.403,137.999 
						192.994,137.985 193.585,140.715 194.176,140.715 194.767,140.715 195.357,146.174 195.947,145.642 196.538,146.174 
						197.129,144.795 197.72,143.444 198.311,144.809 198.901,144.809 199.491,145.696 200.082,145.532 200.673,144.358 
						201.264,144.126 201.854,142.08 202.445,143.444 203.035,144.809 203.626,143.444 204.217,142.625 204.808,142.08 
						205.398,140.715 205.989,140.032 206.579,139.282 207.17,137.985 207.761,138.667 208.352,138.667 208.942,139.35 
						209.533,140.168 210.123,137.985 210.714,138.667 211.305,137.985 211.896,136.62 212.486,138.449 213.077,138.667 
						213.667,137.999 214.258,139.35 214.849,137.289 215.439,137.098 216.03,137.303 216.621,136.62 217.211,136.62 
						217.802,136.62 218.393,136.484 218.983,135.938 219.574,137.303 220.165,136.62 220.755,135.938 221.346,135.938 
						221.937,135.255 222.527,134.573 223.118,133.891 223.709,133.891 224.299,133.891 224.89,133.208 225.48,131.161 
						226.071,130.479 226.662,131.843 227.253,131.161 227.843,130.588 228.434,132.526 229.024,131.843 229.615,131.161 
						230.206,131.843 230.797,135.255 231.387,133.891 231.978,131.843 232.568,132.362 233.159,131.161 233.75,131.843 
						234.341,128.432 234.931,127.749 235.521,127.858 236.112,127.067 236.703,127.081 237.294,126.384 237.885,126.384 
						238.475,125.702 239.065,126.384 239.656,127.067 240.247,125.702 240.838,125.02 241.429,122.972 242.019,123.655 
						242.609,125.02 243.2,124.337 243.791,124.337 244.382,125.156 244.973,124.337 245.562,125.02 246.153,125.156 
						246.744,125.02 247.335,124.337 247.926,123.655 248.517,122.972 249.106,123.655 249.697,122.972 250.288,123.054 
						250.879,123.655 251.47,125.02 252.061,124.337 252.65,122.972 253.241,123.655 253.832,122.29 254.423,126.384 
						255.014,127.067 255.604,129.796 256.194,129.796 256.785,127.067 257.376,124.337 257.967,125.02 258.558,127.067 
						259.148,125.702 259.738,126.384 260.329,124.337 260.92,122.972 261.511,123.791 262.102,122.958 262.692,121.607 
						263.282,122.972 263.873,121.607 264.464,122.017 265.055,123.655 265.646,123.655 266.236,123.655 266.826,125.02 
						267.417,125.702 268.008,125.02 268.599,124.337 269.189,124.337 269.78,122.972 270.37,122.972 270.961,121.607 
						271.552,121.676 272.143,120.243 272.733,120.229 273.324,118.196 273.914,118.196 274.505,118.878 275.096,119.561 
						275.687,119.561 276.277,118.196 276.868,118.196 277.458,118.878 278.049,119.561 278.64,122.29 279.23,122.29 
						279.821,123.655 280.412,121.607 281.002,121.607 281.593,122.29 282.184,121.607 282.774,121.607 283.365,120.243 
						283.956,120.243 284.546,120.243 285.137,122.972 285.728,122.972 286.318,122.972 286.909,123.887 287.5,125.811 
						288.09,128.991 288.681,125.702 289.271,125.702 289.862,124.337 290.453,125.02 291.044,122.972 291.634,122.29 
						292.225,122.699 292.815,122.29 293.406,120.243 293.997,120.243 294.588,120.243 295.178,119.41 295.769,117.513 
						296.359,118.196 296.95,121.607 297.541,118.196 298.132,118.196 298.723,118.878 299.312,122.972 299.903,122.972 
						300.494,122.29 301.085,120.912 301.676,122.972 302.266,122.29 302.856,121.853 303.447,120.816 304.038,121.607 
						304.629,121.607 305.22,122.29 305.811,121.607 306.4,122.167 306.991,120.925 307.582,120.925 308.173,123.655 
						308.764,123.655 309.354,127.749 309.944,126.248 310.535,125.716 311.126,122.972 311.717,121.034 312.308,122.972 
						312.898,121.607 313.488,121.607 314.079,120.925 314.67,120.925 315.261,120.243 315.852,118.878 316.441,120.243 
						317.032,118.878 317.623,117.513 318.214,117.513 					"/>
					<g id="Data_points_2_">
					</g>
				</g>
			</g>
			<rect x="245.024" y="187.924" fill="#0099DC" stroke="#0099DC" width="4" height="6"/>
			<g>
				<text transform="matrix(1 0 0 1 251.0249 193.9243)" font-family="'DJ5RetinaNr-Bold'" font-size="8.4">JPMorgan Chase</text>
			</g>
			<rect x="245.024" y="197.924" fill="#C7C8CA" stroke="#C7C8CA" width="4" height="6"/>
			<g>
				<text transform="matrix(1 0 0 1 250.9829 203.9243)" font-family="'DJ5RetinaNr-Bold'" font-size="8.4">Citigroup</text>
			</g>
			<rect x="245.024" y="177.924" fill="#0079AE" stroke="#0079AE" width="4" height="6"/>
			<g>
				<text transform="matrix(1 0 0 1 251.1089 183.9243)" font-family="'DJ5RetinaNr-Bold'" font-size="8.4">Bank of America</text>
			</g>
		</g>
		<g id="WSJChart_x5F_196354607585">
			<g id="WSJ_x5F_Charter_x5F_Data_x5F_Object">
				<rect id="WSJ_x5F_Charter_x5F_Empty_x5F_Point" x="80.646" y="91.125" fill="none" width="0" height="0"/>
			</g>
			<rect id="WSJ_x5F_Charter_x5F_Origin_x5F_Point" x="80.646" y="91.125" fill="none" width="0" height="0"/>
		</g>
		
			<line fill="none" stroke="#000000" stroke-width="0.5" stroke-miterlimit="10" x1="175.865" y1="246.736" x2="175.865" y2="243.074"/>
		
			<line fill="none" stroke="#000000" stroke-width="0.5" stroke-miterlimit="10" x1="246.744" y1="243.074" x2="246.744" y2="246.611"/>
		
			<line fill="none" stroke="#000000" stroke-width="0.5" stroke-miterlimit="10" x1="317.623" y1="243.074" x2="317.623" y2="246.673"/>
		<path fill="none" stroke="#000000" stroke-width="0.5" stroke-miterlimit="10" d="M176.786,243.955"/>
	</g>
</g>
<g id="GFX__x2014__examples">
	<g id="Blank_gfx_x2014_US">
	</g>
	<g id="TIMESCALE">
	</g>
	<g id="FLOW">
	</g>
	<g id="TYPE">
	</g>
	<g id="GFX_1_">
	</g>
	<g id="Print_specs_1_">
	</g>
	<g id="Layer_13">
	</g>
	<g id="Keys_Callouts_Pointers">
	</g>
	<path fill="none" stroke="#000000" stroke-width="0.5" stroke-miterlimit="10" d="M181.015,262.149"/>
	<path fill="none" stroke="#000000" stroke-width="0.5" stroke-miterlimit="10" d="M181.015,260.149"/>
</g>
</svg>
