<?xml version="1.0" encoding="utf-8"?>
<!-- Generator: Adobe Illustrator 16.0.4, SVG Export Plug-In . SVG Version: 6.00 Build 0)  -->
<!DOCTYPE svg PUBLIC "-//W3C//DTD SVG 1.1//EN" "http://www.w3.org/Graphics/SVG/1.1/DTD/svg11.dtd">
<svg version="1.1" id="Layer_1" xmlns="http://www.w3.org/2000/svg" xmlns:xlink="http://www.w3.org/1999/xlink" x="0px" y="0px"
	 width="80px" height="40px" viewBox="0 0 80 40" enable-background="new 0 0 80 40" xml:space="preserve">
<g>
	<path d="M18.427,25.752v4.883H2.55V4.287h6.112v21.465H18.427z"/>
	<path d="M28.934,11.592c1.422,0,2.718,0.223,3.888,0.669c1.169,0.446,2.173,1.085,3.011,1.917c0.838,0.832,1.489,1.842,1.953,3.029
		c0.464,1.188,0.696,2.522,0.696,4.005c0,1.495-0.232,2.843-0.696,4.042c-0.464,1.199-1.115,2.219-1.953,3.056
		c-0.838,0.839-1.842,1.483-3.011,1.936c-1.17,0.452-2.466,0.678-3.888,0.678c-1.435,0-2.74-0.226-3.915-0.678
		c-1.176-0.452-2.188-1.097-3.038-1.936c-0.85-0.837-1.507-1.856-1.971-3.056c-0.464-1.199-0.696-2.547-0.696-4.042
		c0-1.483,0.232-2.818,0.696-4.005c0.464-1.188,1.121-2.197,1.971-3.029c0.85-0.832,1.862-1.471,3.038-1.917
		C26.194,11.815,27.499,11.592,28.934,11.592z M28.934,26.765c1.29,0,2.239-0.455,2.848-1.365c0.608-0.91,0.913-2.294,0.913-4.15
		s-0.305-3.237-0.913-4.141c-0.609-0.904-1.558-1.356-2.848-1.356c-1.326,0-2.297,0.452-2.912,1.356S25.1,19.393,25.1,21.249
		s0.308,3.24,0.922,4.15S27.608,26.765,28.934,26.765z"/>
	<path d="M58.141,12.46v2.043c0,0.313-0.088,0.561-0.264,0.742c-0.174,0.181-0.473,0.319-0.895,0.416l-1.355,0.308
		c0.072,0.265,0.129,0.537,0.172,0.814c0.041,0.277,0.062,0.566,0.062,0.868c0,0.94-0.195,1.785-0.588,2.532
		c-0.393,0.748-0.928,1.383-1.609,1.908s-1.486,0.929-2.414,1.212s-1.924,0.425-2.984,0.425c-0.289,0-0.572-0.009-0.85-0.027
		c-0.277-0.018-0.549-0.051-0.814-0.099c-0.41,0.253-0.613,0.536-0.613,0.85s0.168,0.54,0.506,0.678
		c0.338,0.139,0.783,0.235,1.338,0.29c0.555,0.054,1.184,0.09,1.891,0.108c0.705,0.018,1.424,0.061,2.16,0.126
		c0.734,0.066,1.455,0.179,2.16,0.335c0.707,0.156,1.336,0.41,1.891,0.76s1,0.816,1.338,1.401s0.506,1.329,0.506,2.233
		c0,0.844-0.205,1.669-0.613,2.478c-0.41,0.808-1.014,1.524-1.809,2.151c-0.797,0.627-1.773,1.131-2.93,1.511
		c-1.158,0.379-2.484,0.569-3.979,0.569c-1.471,0-2.74-0.139-3.807-0.416s-1.953-0.642-2.658-1.094s-1.228-0.974-1.565-1.564
		s-0.506-1.206-0.506-1.845c0-0.832,0.241-1.525,0.724-2.08c0.482-0.554,1.158-1,2.025-1.338c-0.459-0.277-0.82-0.633-1.086-1.066
		c-0.264-0.435-0.396-0.995-0.396-1.683c0-0.276,0.047-0.569,0.145-0.877c0.096-0.308,0.25-0.608,0.461-0.904
		c0.211-0.295,0.473-0.575,0.787-0.841c0.312-0.265,0.686-0.5,1.121-0.705c-0.977-0.519-1.748-1.202-2.314-2.053
		c-0.568-0.85-0.851-1.841-0.851-2.975c0-0.94,0.198-1.787,0.597-2.541s0.943-1.393,1.637-1.917s1.51-0.928,2.449-1.211
		c0.941-0.283,1.959-0.425,3.057-0.425c1.592,0,3.002,0.302,4.232,0.904H58.141z M52.605,31.322c0-0.446-0.197-0.769-0.596-0.968
		s-0.916-0.341-1.555-0.425c-0.641-0.084-1.354-0.136-2.145-0.154c-0.789-0.018-1.576-0.062-2.359-0.135
		c-0.35,0.241-0.637,0.509-0.859,0.805c-0.223,0.295-0.334,0.63-0.334,1.003c0,0.266,0.057,0.507,0.172,0.724
		s0.316,0.403,0.605,0.561c0.289,0.156,0.678,0.28,1.166,0.371c0.488,0.09,1.107,0.136,1.854,0.136c0.809,0,1.471-0.049,1.99-0.146
		c0.518-0.097,0.932-0.229,1.238-0.397s0.521-0.371,0.643-0.605C52.545,31.855,52.605,31.6,52.605,31.322z M48.266,20.272
		c0.928,0,1.602-0.232,2.018-0.696c0.416-0.464,0.623-1.064,0.623-1.799c0-0.76-0.207-1.356-0.623-1.791s-1.09-0.651-2.018-0.651
		s-1.6,0.217-2.016,0.651s-0.625,1.031-0.625,1.791c0,0.361,0.053,0.693,0.154,0.995s0.262,0.563,0.479,0.787
		c0.219,0.223,0.492,0.397,0.824,0.524C47.412,20.209,47.809,20.272,48.266,20.272z"/>
	<path d="M68.773,11.592c1.422,0,2.719,0.223,3.888,0.669c1.17,0.446,2.173,1.085,3.012,1.917c0.837,0.832,1.488,1.842,1.952,3.029
		c0.465,1.188,0.696,2.522,0.696,4.005c0,1.495-0.231,2.843-0.696,4.042c-0.464,1.199-1.115,2.219-1.952,3.056
		c-0.839,0.839-1.842,1.483-3.012,1.936c-1.169,0.452-2.466,0.678-3.888,0.678c-1.435,0-2.74-0.226-3.915-0.678
		c-1.176-0.452-2.188-1.097-3.038-1.936c-0.851-0.837-1.508-1.856-1.972-3.056s-0.696-2.547-0.696-4.042
		c0-1.483,0.232-2.818,0.696-4.005s1.121-2.197,1.972-3.029c0.85-0.832,1.862-1.471,3.038-1.917
		C66.033,11.815,67.339,11.592,68.773,11.592z M68.773,26.765c1.29,0,2.239-0.455,2.849-1.365c0.608-0.91,0.913-2.294,0.913-4.15
		s-0.305-3.237-0.913-4.141c-0.609-0.904-1.559-1.356-2.849-1.356c-1.326,0-2.297,0.452-2.911,1.356
		c-0.615,0.904-0.923,2.285-0.923,4.141s0.308,3.24,0.923,4.15C66.477,26.31,67.447,26.765,68.773,26.765z"/>
</g>
</svg>
