<?xml version="1.0" encoding="utf-8"?>
<!-- Generator: Adobe Illustrator 16.0.4, SVG Export Plug-In . SVG Version: 6.00 Build 0)  -->
<!DOCTYPE svg PUBLIC "-//W3C//DTD SVG 1.1//EN" "http://www.w3.org/Graphics/SVG/1.1/DTD/svg11.dtd">
<svg version="1.1" id="Layer_1" xmlns="http://www.w3.org/2000/svg" xmlns:xlink="http://www.w3.org/1999/xlink" x="0px" y="0px"
	 width="25px" height="20px" viewBox="0 0 25 20" enable-background="new 0 0 25 20" xml:space="preserve">
<path opacity="0.5" fill="#FFFFFF" d="M24.842,9.4c0,4.462-5.293,8.079-11.819,8.079c-1.801,0-3.507-0.275-5.035-0.767
	C7.789,16.648,7.592,16.58,7.4,16.51c-0.326-0.121-5.407,3.727-5.178,3.479c1.635-1.78,2.778-4.275,2.479-4.848
	c-0.203-0.388-0.398-0.482-0.41-0.491C2.153,13.187,1.203,11.632,1.203,9.4c0-4.461,5.292-8.078,11.819-8.078
	C19.549,1.322,24.842,4.939,24.842,9.4z"/>
</svg>
